<svg xmlns="http://www.w3.org/2000/svg" viewBox="0 0 816.59485 466.89831" height="466.898" width="816.595"><path d="M254.182 412.646v-46.111m0-21.166v-46.11m0 0V247.1m0-84.662V110.28m0 0h302.366m0 0v52.158m0 84.662v52.158m0 0v46.111m0 21.166v46.11" fill="none" stroke="#000" stroke-width="1.06400133" stroke-miterlimit="10"/><path d="M222.434 366.535h63.497m-63.497-21.166h63.497" fill="none" stroke="#000" stroke-width="1.2746682599999999" stroke-miterlimit="10"/><g font-style="italic" font-weight="400"><text style="-inkscape-font-specification:CMMI10" transform="matrix(2.66667 0 0 2.66667 168.497 361.23)" font-size="9.963" font-family="CMMI10"><tspan y="0" x="0">C</tspan></text><text style="-inkscape-font-specification:CMMI7" transform="matrix(2.66667 0 0 2.66667 187.483 365.216)" font-size="6.974" font-family="CMMI7"><tspan y="0" x="0 4.1305819">gs</tspan></text></g><path d="M254.182 247.738l-15.874-7.746 31.748-14.217-31.748-14.216 31.748-14.217-31.748-14.217 31.748-14.216-15.874-7.109" fill="none" stroke="#000" stroke-width="1.2746682599999999" stroke-linejoin="bevel" stroke-miterlimit="10"/><g font-style="italic" font-weight="400"><text style="-inkscape-font-specification:CMMI10" transform="matrix(2.66667 0 0 2.66667 183.758 211.854)" font-size="9.963" font-family="CMMI10"><tspan y="0" x="0">R</tspan></text><text style="-inkscape-font-specification:CMMI7" transform="matrix(2.66667 0 0 2.66667 203.929 215.84)" font-size="6.974" font-family="CMMI7"><tspan y="0" x="0 3.760273">sx</tspan></text></g><path d="M556.548 161.8l15.874 7.746-31.748 14.217 31.748 14.217-31.748 14.216 31.748 14.217-31.748 14.216 15.874 7.109" fill="none" stroke="#000" stroke-width="1.2746682599999999" stroke-linejoin="bevel" stroke-miterlimit="10"/><g font-style="italic" font-weight="400"><text style="-inkscape-font-specification:CMMI10" transform="matrix(2.66667 0 0 2.66667 583.395 211.854)" font-size="9.963" font-family="CMMI10"><tspan y="0" x="0">R</tspan></text><text style="-inkscape-font-specification:CMMI7" transform="matrix(2.66667 0 0 2.66667 603.566 215.84)" font-size="6.974" font-family="CMMI7"><tspan y="0" x="0 4.1473188">dx</tspan></text></g><path d="M588.297 345.37h-63.498m63.498 21.165h-63.498" fill="none" stroke="#000" stroke-width="1.2746682599999999" stroke-miterlimit="10"/><g font-style="italic" font-weight="400"><text style="-inkscape-font-specification:CMMI10" transform="matrix(2.66667 0 0 2.66667 600.857 361.23)" font-size="9.963" font-family="CMMI10"><tspan y="0" x="0">C</tspan></text><text style="-inkscape-font-specification:CMMI7" transform="matrix(2.66667 0 0 2.66667 619.843 365.216)" font-size="6.974" font-family="CMMI7"><tspan y="0" x="0 4.1305819">gd</tspan></text></g><path d="M27.408 412.646h71.056m84.662 0h71.056m0 0h119.434m63.498 0h119.434m0 0h71.056m84.662 0h71.057" fill="none" stroke="#000" stroke-width="1.06400133" stroke-miterlimit="10"/><text style="-inkscape-font-specification:LMRoman10-Regular-Identity-H" transform="matrix(2.66667 0 0 2.66667 3.249 421.718)" font-size="9.963" font-family="LMRoman10-Regular-Identity"><tspan y="0" x="0">S</tspan></text><path d="M97.826 412.646l7.746-15.875 14.217 31.749 14.216-31.749 14.217 31.749 14.217-31.749 14.216 31.749 7.109-15.874" fill="none" stroke="#000" stroke-width="1.2746682599999999" stroke-linejoin="bevel" stroke-miterlimit="10"/><g><g font-style="italic" font-weight="400"><text style="-inkscape-font-specification:CMMI10" transform="matrix(2.66667 0 0 2.66667 125.03 457.648)" font-size="9.963" font-family="CMMI10"><tspan y="0" x="0">R</tspan></text><text style="-inkscape-font-specification:CMMI7" transform="matrix(2.66667 0 0 2.66667 145.2 461.635)" font-size="6.974" font-family="CMMI7"><tspan y="0" x="0">s</tspan></text></g></g><g><g><path d="M31.64 412.646a4.232 4.232 0 1 0-8.465 0 4.232 4.232 0 0 0 8.465 0z" fill="#fff" stroke="#000" stroke-width="1.06400133" stroke-miterlimit="10"/></g></g><g><g><path d="M258.414 412.646a4.232 4.232 0 1 0-8.464 0 4.232 4.232 0 0 0 8.464 0z" stroke="#000" stroke-width="1.06400133" stroke-miterlimit="10"/></g></g><g><path d="M405.365 380.897c-17.534 0-31.749 14.214-31.749 31.749 0 17.534 14.215 31.748 31.75 31.748 17.534 0 31.748-14.214 31.748-31.748 0-17.535-14.214-31.749-31.749-31.749zM383.141 412.646h44.448" fill="none" stroke="#000" stroke-width="1.2746682599999999" stroke-miterlimit="10"/><g><path d="M394.12 412.646v-5.292l-11.243 5.292 11.244 5.291v-5.291" stroke="#000" stroke-width="1.2746682599999999" stroke-miterlimit="10"/></g></g><g><g><path d="M258.414 412.646a4.232 4.232 0 1 0-8.464 0 4.232 4.232 0 0 0 8.464 0z" stroke="#000" stroke-width="1.06400133" stroke-miterlimit="10"/></g></g><g><g><path d="M560.78 412.646a4.232 4.232 0 1 0-8.464 0 4.232 4.232 0 0 0 8.464 0z" stroke="#000" stroke-width="1.06400133" stroke-miterlimit="10"/></g></g><g><g font-style="italic" font-weight="400"><text style="-inkscape-font-specification:CMMI10" transform="matrix(2.66667 0 0 2.66667 388.318 364.35)" font-size="9.963" font-family="CMMI10"><tspan y="0" x="0">I</tspan></text><text style="-inkscape-font-specification:CMMI7" transform="matrix(2.66667 0 0 2.66667 399.995 368.336)" font-size="6.974" font-family="CMMI7"><tspan y="0" x="0 4.1473188">ds</tspan></text></g></g><g><path d="M626.966 412.646l7.746-15.875 14.217 31.749 14.217-31.749 14.216 31.749 14.217-31.749 14.217 31.749 7.108-15.874" fill="none" stroke="#000" stroke-width="1.2746682599999999" stroke-linejoin="bevel" stroke-miterlimit="10"/></g><g><g font-style="italic" font-weight="400"><text style="-inkscape-font-specification:CMMI10" transform="matrix(2.66667 0 0 2.66667 653.654 457.648)" font-size="9.963" font-family="CMMI10"><tspan y="0" x="0">R</tspan></text><text style="-inkscape-font-specification:CMMI7" transform="matrix(2.66667 0 0 2.66667 673.825 461.635)" font-size="6.974" font-family="CMMI7"><tspan y="0" x="0">d</tspan></text></g></g><g><g><path d="M560.78 412.646a4.232 4.232 0 1 0-8.464 0 4.232 4.232 0 0 0 8.464 0z" stroke="#000" stroke-width="1.06400133" stroke-miterlimit="10"/></g></g><g><g><path d="M787.555 412.646a4.232 4.232 0 1 0-8.465 0 4.232 4.232 0 0 0 8.465 0z" fill="#fff" stroke="#000" stroke-width="1.06400133" stroke-miterlimit="10"/></g></g><g><text style="-inkscape-font-specification:LMRoman10-Regular-Identity-H" transform="matrix(2.66667 0 0 2.66667 792.707 421.718)" font-size="9.963" font-family="LMRoman10-Regular-Identity"><tspan y="0" x="0">D</tspan></text></g><path d="M405.365 110.28V72.484m0 0V34.688" fill="none" stroke="#000" stroke-width="1.06400133" stroke-miterlimit="10"/><g><g><path d="M409.597 110.28a4.232 4.232 0 1 0-8.464 0 4.232 4.232 0 0 0 8.464 0z" stroke="#000" stroke-width="1.06400133" stroke-miterlimit="10"/></g></g><g><g><path d="M409.597 34.688a4.232 4.232 0 1 0-8.464 0 4.232 4.232 0 0 0 8.464 0z" fill="#fff" stroke="#000" stroke-width="1.06400133" stroke-miterlimit="10"/></g></g><g><text style="-inkscape-font-specification:LMRoman10-Regular-Identity-H" transform="matrix(2.66667 0 0 2.66667 394.937 24.718)" font-size="9.963" font-family="LMRoman10-Regular-Identity"><tspan y="0" x="0">G</tspan></text></g></svg>